<svg width="512" height="512" viewBox="0 0 512 512" fill="none" xmlns="http://www.w3.org/2000/svg" xmlns:xlink="http://www.w3.org/1999/xlink" class=""><rect id="r4" width="512" height="512" x="0" y="0"  fill="url(#r5)" stroke="#FFFFFF" stroke-width="0" stroke-opacity="100%" paint-order="stroke"></rect><clipPath id="clip"><use xlink:href="#r4"></use></clipPath><defs><linearGradient id="r5" gradientUnits="userSpaceOnUse" gradientTransform="rotate(45)" style="transform-origin: center center;"><stop stop-color="#8E2DE2"></stop><stop offset="1" stop-color="#4A00E0"></stop></linearGradient><radialGradient id="r6" cx="0" cy="0" r="1" gradientUnits="userSpaceOnUse" gradientTransform="translate(256) rotate(90) scale(512)"><stop stop-color="white"></stop><stop offset="1" stop-color="white" stop-opacity="0"></stop></radialGradient></defs><svg xmlns="http://www.w3.org/2000/svg" width="350" height="350" viewBox="0 0 32 32" x="81" y="81" alignment-baseline="middle" style="color: rgb(255, 255, 255);"><path fill="currentColor" d="M28 20h-2v2h2v6H4v-6h2v-2H4a2.002 2.002 0 0 0-2 2v6a2.002 2.002 0 0 0 2 2h24a2.002 2.002 0 0 0 2-2v-6a2.002 2.002 0 0 0-2-2Z"></path><circle cx="7" cy="25" r="1" fill="currentColor"></circle><path fill="currentColor" d="m22.707 7.293l-5-5A1 1 0 0 0 17 2h-6a2.002 2.002 0 0 0-2 2v16a2.002 2.002 0 0 0 2 2h10a2.002 2.002 0 0 0 2-2V8a1 1 0 0 0-.293-.707ZM20.586 8H17V4.414ZM11 20V4h4v4a2.002 2.002 0 0 0 2 2h4v10Z"></path></svg></svg>
