<svg width="512" height="512" viewBox="0 0 512 512" fill="none" xmlns="http://www.w3.org/2000/svg" xmlns:xlink="http://www.w3.org/1999/xlink" class=""><rect id="r4" width="512" height="512" x="0" y="0"  fill="#FFDE00" stroke="#FFFFFF" stroke-width="0" stroke-opacity="100%" paint-order="stroke"></rect><clipPath id="clip"><use xlink:href="#r4"></use></clipPath><defs><linearGradient id="r5" gradientUnits="userSpaceOnUse" gradientTransform="rotate(45)" style="transform-origin: center center;"><stop stop-color="#FFDE00"></stop><stop offset="1" stop-color="#4A00E0"></stop></linearGradient><radialGradient id="r6" cx="0" cy="0" r="1" gradientUnits="userSpaceOnUse" gradientTransform="translate(256) rotate(90) scale(512)"><stop stop-color="white"></stop><stop offset="1" stop-color="white" stop-opacity="0"></stop></radialGradient></defs><svg width="350" height="350" viewBox="0 0 100 100" fill="none" xmlns="http://www.w3.org/2000/svg" x="81" y="81" alignment-baseline="middle" style="color: rgb(0, 0, 0);">
    <g>
        <path d="M14 84.6466H19.1234C21.7395 84.6466 23.3746 82.957 23.3746 80.2863V20.6047C23.3746 17.934 21.7395 16.2444 19.1234 16.2444H14V3H50.899C70.7384 3 86.4355 13.3012 86.4355 32.868C86.4355 52.4349 70.7384 62.8451 50.899 62.8451H38.1997V80.2863C38.1997 82.957 39.8348 84.6466 42.6145 84.6466H52.9702V98H14V84.6466ZM49.8089 49.0556C62.8898 49.0556 70.4659 43.4418 70.4659 33.1406C70.4659 22.8394 62.8898 17.2255 49.8089 17.2255H38.2542V49.1647H49.8089V49.0011V49.0556Z" fill="currentColor"></path>
    </g>
</svg>
</svg>
