<svg width="512" height="512" viewBox="0 0 512 512" fill="none" xmlns="http://www.w3.org/2000/svg" xmlns:xlink="http://www.w3.org/1999/xlink" class=""><rect id="r4" width="512" height="512" x="0" y="0"  fill="url(#r5)" stroke="#FFFFFF" stroke-width="0" stroke-opacity="100%" paint-order="stroke"></rect><clipPath id="clip"><use xlink:href="#r4"></use></clipPath><defs><linearGradient id="r5" gradientUnits="userSpaceOnUse" gradientTransform="rotate(45)" style="transform-origin: center center;"><stop stop-color="#FF5CAA"></stop><stop offset="1" stop-color="#FF4E62"></stop></linearGradient><radialGradient id="r6" cx="0" cy="0" r="1" gradientUnits="userSpaceOnUse" gradientTransform="translate(256) rotate(90) scale(512)"><stop stop-color="white"></stop><stop offset="1" stop-color="white" stop-opacity="0"></stop></radialGradient></defs><svg width="420" height="420" viewBox="0 0 100 100" fill="none" xmlns="http://www.w3.org/2000/svg" x="46" y="46" alignment-baseline="middle" style="color: rgb(255, 255, 255);">
    <path d="M3 77.4006L20.5549 32.4874C23.0277 26.1739 29.1307 22 35.9177 22H46.4927L28.9378 66.9132C26.465 73.2442 20.362 77.4006 13.575 77.4006H3Z" fill="currentColor"></path>
    <path d="M28.7449 77.4006L46.2998 32.4874C48.7726 26.1739 54.8756 22 61.6801 22H72.2551L54.7002 66.9132C52.2274 73.2442 46.1244 77.4006 39.3375 77.4006H28.7624H28.7449Z" fill="currentColor"></path>
    <path d="M54.5073 77.4006L72.0622 32.4874C74.535 26.1739 80.638 22 87.425 22H98L80.4451 66.9132C77.9723 73.2442 71.8693 77.4006 65.0823 77.4006H54.5073Z" fill="currentColor"></path>
</svg>
</svg>
