<svg width="512" height="512" viewBox="0 0 512 512" fill="none" xmlns="http://www.w3.org/2000/svg" xmlns:xlink="http://www.w3.org/1999/xlink" class=""><rect id="r4" width="512" height="512" x="0" y="0"  fill="url(#r5)" stroke="#FFFFFF" stroke-width="0" stroke-opacity="100%" paint-order="stroke"></rect><clipPath id="clip"><use xlink:href="#r4"></use></clipPath><defs><linearGradient id="r5" gradientUnits="userSpaceOnUse" gradientTransform="rotate(45)" style="transform-origin: center center;"><stop stop-color="#8E2DE2"></stop><stop offset="1" stop-color="#4A00E0"></stop></linearGradient><radialGradient id="r6" cx="0" cy="0" r="1" gradientUnits="userSpaceOnUse" gradientTransform="translate(256) rotate(90) scale(512)"><stop stop-color="white"></stop><stop offset="1" stop-color="white" stop-opacity="0"></stop></radialGradient></defs><svg xmlns="http://www.w3.org/2000/svg" width="380" height="380" viewBox="0 0 32 32" x="66" y="66" alignment-baseline="middle" style="color: rgb(255, 255, 255);"><path fill="currentColor" d="M19.668 4.108a.5.5 0 0 0-.705.08L14.36 10h-2.551l5.587-7.054a2.5 2.5 0 0 1 3.522-.4l5.147 4.123a2.5 2.5 0 0 1 .522 3.33h-2.614l.907-1.052a.5.5 0 0 0-.066-.717L22.31 6.224L19.342 10h-2.544l3.95-5.026l-1.08-.866ZM6 7a3 3 0 0 0-3 3v14.5A4.5 4.5 0 0 0 7.5 29h17a4.5 4.5 0 0 0 4.5-4.5v-9a4.5 4.5 0 0 0-4.5-4.5H6a1 1 0 1 1 0-2h4.58l1.596-2H6Zm15 12h3a1 1 0 1 1 0 2h-3a1 1 0 1 1 0-2Z"></path></svg></svg>
