<svg width="512" height="512" viewBox="0 0 512 512" fill="none" xmlns="http://www.w3.org/2000/svg" xmlns:xlink="http://www.w3.org/1999/xlink" class=""><rect id="r4" width="512" height="512" x="0" y="0"  fill="url(#r5)" stroke="#FFFFFF" stroke-width="0" stroke-opacity="100%" paint-order="stroke"></rect><clipPath id="clip"><use xlink:href="#r4"></use></clipPath><defs><linearGradient id="r5" gradientUnits="userSpaceOnUse" gradientTransform="rotate(45)" style="transform-origin: center center;"><stop stop-color="#8E2DE2"></stop><stop offset="1" stop-color="#4A00E0"></stop></linearGradient><radialGradient id="r6" cx="0" cy="0" r="1" gradientUnits="userSpaceOnUse" gradientTransform="translate(256) rotate(90) scale(512)"><stop stop-color="white"></stop><stop offset="1" stop-color="white" stop-opacity="0"></stop></radialGradient></defs><svg xmlns="http://www.w3.org/2000/svg" width="380" height="380" viewBox="0 0 24 24" x="66" y="66" alignment-baseline="middle" style="color: rgb(255, 255, 255);"><path fill="currentColor" d="M11.77 3c-2.65.07-5 1.28-6.6 3.16L3.85 4.85a.5.5 0 0 0-.85.36V9.5c0 .28.22.5.5.5h4.29c.45 0 .67-.54.35-.85L6.59 7.59C7.88 6.02 9.82 5 12 5c4.32 0 7.74 3.94 6.86 8.41c-.54 2.77-2.81 4.98-5.58 5.47c-3.8.68-7.18-1.74-8.05-5.16c-.12-.42-.52-.72-.96-.72c-.65 0-1.14.61-.98 1.23C4.28 18.12 7.8 21 12 21c5.06 0 9.14-4.17 9-9.26c-.14-4.88-4.35-8.86-9.23-8.74zM14 12c0-1.1-.9-2-2-2s-2 .9-2 2s.9 2 2 2s2-.9 2-2z"></path></svg></svg>
