<svg width="512" height="512" viewBox="0 0 512 512" fill="none" xmlns="http://www.w3.org/2000/svg" xmlns:xlink="http://www.w3.org/1999/xlink" class=""><rect id="r4" width="512" height="512" x="0" y="0"  fill="#5468FF" stroke="#FFFFFF" stroke-width="0" stroke-opacity="100%" paint-order="stroke"></rect><clipPath id="clip"><use xlink:href="#r4"></use></clipPath><defs><linearGradient id="r5" gradientUnits="userSpaceOnUse" gradientTransform="rotate(45)" style="transform-origin: center center;"><stop stop-color="#5468FF"></stop><stop offset="1" stop-color="#4A00E0"></stop></linearGradient><radialGradient id="r6" cx="0" cy="0" r="1" gradientUnits="userSpaceOnUse" gradientTransform="translate(256) rotate(90) scale(512)"><stop stop-color="white"></stop><stop offset="1" stop-color="white" stop-opacity="0"></stop></radialGradient></defs><svg width="350" height="350" viewBox="0 0 100 100" fill="none" xmlns="http://www.w3.org/2000/svg" x="81" y="81" alignment-baseline="middle" style="color: rgb(255, 255, 255);">
    <g>
        <path d="M14.4765 31.7517C15.8898 29.8085 17.4356 27.9535 19.1581 26.2752C20.8805 24.5528 22.7355 22.9628 24.6788 21.5495C25.1204 21.2845 25.1646 20.7104 24.8113 20.3129L22.3822 17.8838C21.2339 16.6913 19.6439 16.073 17.9656 16.073C16.3757 16.073 14.8299 16.7355 13.7257 17.8838L10.8108 20.7987C8.42586 23.1836 8.42586 27.0702 10.8108 29.4551L13.1957 31.8842C13.5932 32.2817 14.1232 32.1934 14.4765 31.7959V31.7517Z" fill="currentColor"></path>
        <path d="M51.7964 34.8875C51.3547 34.8875 50.9572 35.2408 50.9572 35.7266V56.6611C50.9572 57.2794 51.6197 57.7211 52.1497 57.4119L70.7875 47.7838C71.2292 47.563 71.3175 47.0772 71.1408 46.6355C67.166 39.6574 59.8786 35.2408 51.8405 34.9317L51.7964 34.8875Z" fill="currentColor"></path>
        <path d="M38.5467 14.9247C42.61 13.7764 46.7615 13.1581 51.0014 13.1581C55.0646 13.1581 59.1279 13.6881 63.0144 14.7922C63.1028 14.7922 63.1469 14.7922 63.2353 14.7922C63.6769 14.7922 64.0302 14.3947 64.0302 13.953V9.09484C64.0302 5.73826 61.292 3 57.8912 3H43.5816C40.1809 3 37.4426 5.73826 37.4426 9.13901V14.0855C37.4426 14.6597 37.9726 15.013 38.5026 14.9247H38.5467Z" fill="currentColor"></path>
        <path d="M50.9572 18.1488C28.8745 18.1488 10.9875 36.0358 10.9875 58.1186C10.9875 80.2013 28.8745 98.0442 50.9572 98.0442C73.04 98.0442 90.927 80.1571 90.927 58.1186V58.0302C90.927 35.9916 72.9958 18.1929 50.9572 18.2371V18.1488ZM79.1348 58.1186C79.1348 73.6648 66.5035 86.252 50.9572 86.2078C35.411 86.2078 22.8238 73.6206 22.7796 58.0744C22.7796 42.5281 35.411 29.941 50.9572 29.941C66.5035 29.941 79.0907 42.5281 79.1348 58.0744V58.1186Z" fill="currentColor"></path>
    </g>
</svg>
</svg>
