<svg width="512" height="512" viewBox="0 0 512 512" fill="none" xmlns="http://www.w3.org/2000/svg" xmlns:xlink="http://www.w3.org/1999/xlink" class=""><rect id="r4" width="512" height="512" x="0" y="0"  fill="#36D576" stroke="#FFFFFF" stroke-width="0" stroke-opacity="100%" paint-order="stroke"></rect><clipPath id="clip"><use xlink:href="#r4"></use></clipPath><defs><linearGradient id="r5" gradientUnits="userSpaceOnUse" gradientTransform="rotate(45)" style="transform-origin: center center;"><stop stop-color="#36D576"></stop><stop offset="1" stop-color="#4A00E0"></stop></linearGradient><radialGradient id="r6" cx="0" cy="0" r="1" gradientUnits="userSpaceOnUse" gradientTransform="translate(256) rotate(90) scale(512)"><stop stop-color="white"></stop><stop offset="1" stop-color="white" stop-opacity="0"></stop></radialGradient></defs><svg width="400" height="400" viewBox="0 0 100 100" fill="none" xmlns="http://www.w3.org/2000/svg" x="56" y="56" alignment-baseline="middle" style="color: rgb(255, 255, 255);">
    <g>
        <path d="M88.4894 33.8125H44.3231C42.6949 33.8125 41.375 35.1324 41.375 36.7606V41.9894C41.375 43.6176 42.6949 44.9375 44.3231 44.9375H88.4894C90.1176 44.9375 91.4375 43.6176 91.4375 41.9894V36.7606C91.4375 35.1324 90.1176 33.8125 88.4894 33.8125Z" fill="currentColor"></path>
        <path d="M55.1144 56.0625H10.9481C9.31992 56.0625 8 57.3824 8 59.0106V64.2394C8 65.8676 9.31992 67.1875 10.9481 67.1875H55.1144C56.7426 67.1875 58.0625 65.8676 58.0625 64.2394V59.0106C58.0625 57.3824 56.7426 56.0625 55.1144 56.0625Z" fill="currentColor"></path>
        <path d="M24.6875 86.6562C27.7596 86.6562 30.25 84.1658 30.25 81.0938C30.25 78.0217 27.7596 75.5312 24.6875 75.5312C21.6154 75.5312 19.125 78.0217 19.125 81.0938C19.125 84.1658 21.6154 86.6562 24.6875 86.6562Z" fill="currentColor"></path>
        <path d="M74.75 25.4688C77.8221 25.4688 80.3125 22.9783 80.3125 19.9062C80.3125 16.8342 77.8221 14.3438 74.75 14.3438C71.6779 14.3438 69.1875 16.8342 69.1875 19.9062C69.1875 22.9783 71.6779 25.4688 74.75 25.4688Z" fill="currentColor"></path>
        <path d="M49.7187 83.875C46.6037 83.875 43.5722 83.43 40.7075 82.5956C39.3447 82.2063 37.8984 82.985 37.3978 84.32L35.5065 89.5488C34.9503 91.0784 35.8125 92.7472 37.37 93.1922C41.2915 94.3325 45.4356 94.9722 49.7187 94.9722C67.8803 94.9722 83.4275 84.0697 90.3528 68.4947C91.0203 66.9928 90.325 65.2406 88.7675 64.6844L83.5387 62.7653C82.2037 62.2647 80.674 62.8766 80.09 64.1559C74.8612 75.7259 63.2078 83.8194 49.7187 83.8194V83.875Z" fill="currentColor"></path>
        <path d="M49.7187 17.125C52.8337 17.125 55.8653 17.57 58.73 18.4044C60.0928 18.7937 61.5391 18.015 62.0397 16.68L63.9309 11.4512C64.4872 9.92156 63.625 8.25281 62.0675 7.80781C58.1459 6.6675 54.0019 6.02781 49.7187 6.02781C31.5572 6 16.01 16.9025 9.08468 32.4775C8.41718 33.9794 9.11249 35.7316 10.67 36.2878L15.8987 38.2069C17.2337 38.7075 18.7634 38.0956 19.3475 36.8162C24.5762 25.2462 36.2297 17.1528 49.7187 17.1528V17.125Z" fill="currentColor"></path>
    </g>
</svg>
</svg>
