<svg width="512" height="512" viewBox="0 0 512 512" fill="none" xmlns="http://www.w3.org/2000/svg" xmlns:xlink="http://www.w3.org/1999/xlink" class=""><rect id="r4" width="512" height="512" x="0" y="0"  fill="#0abf53" stroke="#FFFFFF" stroke-width="0" stroke-opacity="100%" paint-order="stroke"></rect><clipPath id="clip"><use xlink:href="#r4"></use></clipPath><defs><linearGradient id="r5" gradientUnits="userSpaceOnUse" gradientTransform="rotate(45)" style="transform-origin: center center;"><stop stop-color="#0abf53"></stop><stop offset="1" stop-color="#654EA3"></stop></linearGradient><radialGradient id="r6" cx="0" cy="0" r="1" gradientUnits="userSpaceOnUse" gradientTransform="translate(256) rotate(90) scale(512)"><stop stop-color="white"></stop><stop offset="1" stop-color="white" stop-opacity="0"></stop></radialGradient></defs><svg version="1.2" baseProfile="tiny-ps" xmlns="http://www.w3.org/2000/svg" viewBox="0 0 1579 1578" width="280" height="280" x="116" y="116" alignment-baseline="middle" style="color: rgb(182, 17, 17);">
    <path fill-rule="evenodd" fill="#fff" d="M1578.81 315.05L1578.81 1577.5L316.65 1577.5C142.52 1577.5 0 1434.95 0 1260.77L0 907.81C0 733.63 142.52 591.08 316.65 591.08L658.22 591.08L658.22 1093.35C658.22 1143.1 698.9 1183.84 748.7 1183.84L920.58 1183.84L920.58 484.72C920.58 434.97 879.9 394.23 830.11 394.23L22.62 394.23L22.62 0.57L1262.16 0.57C1436.35 0.57 1578.81 143.12 1578.81 315.05Z"></path>
</svg>
</svg>
