<svg width="40" height="40" viewBox="0 0 40 40" fill="none" xmlns="http://www.w3.org/2000/svg">
<rect x="0.5" y="0.5" width="39" height="39" rx="7.5" fill="white"/>
<rect x="4" y="4" width="32" height="32" rx="4" fill="#F1F3F5"/>
<path d="M12.0795 12.0352C11.917 12.0352 11.7612 12.0997 11.6463 12.2146C11.5314 12.3295 11.4668 12.4854 11.4668 12.6479C11.4668 12.8104 11.5314 12.9662 11.6463 13.0811C11.7612 13.196 11.917 13.2606 12.0795 13.2606H13.2118C13.3507 13.2606 13.4716 13.3537 13.5075 13.4877L15.5973 21.3238C14.9409 21.4949 14.3598 21.8787 13.945 22.4154C13.5302 22.952 13.3051 23.6111 13.3049 24.2894C13.3049 24.6276 13.5794 24.9021 13.9176 24.9021H26.7846C26.9471 24.9021 27.1029 24.8375 27.2178 24.7226C27.3327 24.6077 27.3973 24.4519 27.3973 24.2894C27.3973 24.1269 27.3327 23.971 27.2178 23.8561C27.1029 23.7412 26.9471 23.6767 26.7846 23.6767H14.6349C14.7617 23.3182 14.9964 23.0078 15.3069 22.7884C15.6174 22.5689 15.9883 22.4511 16.3685 22.4512H25.533C25.6478 22.4512 25.7602 22.419 25.8576 22.3582C25.955 22.2974 26.0333 22.2104 26.0836 22.1073C27.0163 20.1933 27.8241 18.2208 28.5018 16.2024C28.5286 16.1226 28.5386 16.038 28.5312 15.9541C28.5239 15.8703 28.4993 15.7888 28.4591 15.7148C28.4188 15.6408 28.3638 15.5759 28.2973 15.5242C28.2309 15.4724 28.1545 15.4349 28.0729 15.414C23.7641 14.3154 19.3275 13.7996 14.8816 13.8806L14.6921 13.1723C14.6051 12.8462 14.4129 12.5579 14.1452 12.3522C13.8775 12.1466 13.5494 12.0351 13.2118 12.0352H12.0795ZM13.3049 26.7402C13.3049 26.4152 13.434 26.1035 13.6638 25.8737C13.8937 25.6439 14.2053 25.5148 14.5303 25.5148C14.8554 25.5148 15.167 25.6439 15.3969 25.8737C15.6267 26.1035 15.7558 26.4152 15.7558 26.7402C15.7558 27.0652 15.6267 27.3769 15.3969 27.6067C15.167 27.8365 14.8554 27.9656 14.5303 27.9656C14.2053 27.9656 13.8937 27.8365 13.6638 27.6067C13.434 27.3769 13.3049 27.0652 13.3049 26.7402ZM23.721 26.7402C23.721 26.4152 23.8501 26.1035 24.0799 25.8737C24.3097 25.6439 24.6214 25.5148 24.9464 25.5148C25.2714 25.5148 25.5831 25.6439 25.8129 25.8737C26.0427 26.1035 26.1718 26.4152 26.1718 26.7402C26.1718 27.0652 26.0427 27.3769 25.8129 27.6067C25.5831 27.8365 25.2714 27.9656 24.9464 27.9656C24.6214 27.9656 24.3097 27.8365 24.0799 27.6067C23.8501 27.3769 23.721 27.0652 23.721 26.7402Z" fill="#4B5563"/>
<rect x="0.5" y="0.5" width="39" height="39" rx="7.5" stroke="#E5E7EB"/>
</svg>
