<svg width="40" height="40" viewBox="0 0 40 40" fill="none" xmlns="http://www.w3.org/2000/svg">
<rect x="0.5" y="0.5" width="39" height="39" rx="7.5" fill="white"/>
<rect x="4" y="4" width="32" height="32" rx="4" fill="#F1F3F5"/>
<path d="M14.0178 15.5138C14.0178 14.6412 14.3645 13.8043 14.9815 13.1873C15.5985 12.5703 16.4354 12.2236 17.308 12.2236C18.1805 12.2236 19.0174 12.5703 19.6344 13.1873C20.2514 13.8043 20.5981 14.6412 20.5981 15.5138C20.5981 16.3864 20.2514 17.2232 19.6344 17.8402C19.0174 18.4573 18.1805 18.8039 17.308 18.8039C16.4354 18.8039 15.5985 18.4573 14.9815 17.8402C14.3645 17.2232 14.0178 16.3864 14.0178 15.5138ZM21.7945 17.3084C21.7945 16.9549 21.8641 16.6048 21.9994 16.2782C22.1347 15.9516 22.333 15.6549 22.5829 15.4049C22.8329 15.1549 23.1297 14.9566 23.4563 14.8214C23.7829 14.6861 24.1329 14.6165 24.4864 14.6165C24.8399 14.6165 25.19 14.6861 25.5166 14.8214C25.8432 14.9566 26.1399 15.1549 26.3899 15.4049C26.6399 15.6549 26.8381 15.9516 26.9734 16.2782C27.1087 16.6048 27.1783 16.9549 27.1783 17.3084C27.1783 18.0223 26.8947 18.707 26.3899 19.2119C25.8851 19.7167 25.2004 20.0003 24.4864 20.0003C23.7725 20.0003 23.0878 19.7167 22.5829 19.2119C22.0781 18.707 21.7945 18.0223 21.7945 17.3084ZM11.625 25.6833C11.625 24.176 12.2237 22.7306 13.2895 21.6648C14.3553 20.599 15.8007 20.0003 17.308 20.0003C18.8152 20.0003 20.2606 20.599 21.3264 21.6648C22.3922 22.7306 22.9909 24.176 22.9909 25.6833V25.6856L22.9901 25.7806C22.9884 25.882 22.961 25.9813 22.9103 26.0692C22.8597 26.1571 22.7875 26.2307 22.7006 26.2831C21.0728 27.2633 19.2081 27.7799 17.308 27.777C15.3363 27.777 13.4906 27.2314 11.9161 26.2831C11.8291 26.2308 11.7567 26.1573 11.7059 26.0694C11.6552 25.9815 11.6276 25.8821 11.6258 25.7806L11.625 25.6833ZM24.1873 25.6856L24.1865 25.8005C24.1821 26.0664 24.1186 26.3279 24.0007 26.5662C25.3931 26.6521 26.7838 26.3745 28.0366 25.7606C28.1334 25.7133 28.2157 25.6406 28.2747 25.5503C28.3337 25.46 28.3671 25.3555 28.3716 25.2478C28.3997 24.5788 28.2546 23.9138 27.9504 23.3174C27.6461 22.7209 27.1929 22.2131 26.6348 21.8432C26.0767 21.4733 25.4325 21.2537 24.7646 21.2059C24.0967 21.158 23.4278 21.2834 22.8226 21.57C23.7105 22.7573 24.1891 24.2007 24.1865 25.6833L24.1873 25.6856Z" fill="#4B5563"/>
<rect x="0.5" y="0.5" width="39" height="39" rx="7.5" stroke="#E5E7EB"/>
</svg>
