<svg width="40" height="40" viewBox="0 0 40 40" fill="none" xmlns="http://www.w3.org/2000/svg">
<rect x="0.5" y="0.5" width="39" height="39" rx="7.5" fill="white"/>
<rect x="4" y="4" width="32" height="32" rx="4" fill="#F1F3F5"/>
<path fill-rule="evenodd" clip-rule="evenodd" d="M12 14.25C12 13.6533 12.2371 13.081 12.659 12.659C13.081 12.2371 13.6533 12 14.25 12H25.75C26.3467 12 26.919 12.2371 27.341 12.659C27.7629 13.081 28 13.6533 28 14.25V22.75C28 23.3467 27.7629 23.919 27.341 24.341C26.919 24.7629 26.3467 25 25.75 25H22.645C22.8403 25.6543 23.2226 26.2372 23.745 26.677C23.8625 26.7762 23.9467 26.9092 23.9861 27.0579C24.0255 27.2065 24.0182 27.3637 23.9653 27.5081C23.9123 27.6526 23.8163 27.7772 23.6901 27.8652C23.564 27.9532 23.4138 28.0002 23.26 28H16.74C16.5863 28 16.4363 27.9528 16.3103 27.8647C16.1843 27.7767 16.0884 27.652 16.0356 27.5077C15.9828 27.3633 15.9756 27.2062 16.015 27.0576C16.0544 26.9091 16.1386 26.7762 16.256 26.677C16.778 26.2371 17.16 25.6542 17.355 25H14.25C13.6533 25 13.081 24.7629 12.659 24.341C12.2371 23.919 12 23.3467 12 22.75V14.25ZM13.5 14.25C13.5 14.0511 13.579 13.8603 13.7197 13.7197C13.8603 13.579 14.0511 13.5 14.25 13.5H25.75C25.9489 13.5 26.1397 13.579 26.2803 13.7197C26.421 13.8603 26.5 14.0511 26.5 14.25V21.75C26.5 21.9489 26.421 22.1397 26.2803 22.2803C26.1397 22.421 25.9489 22.5 25.75 22.5H14.25C14.0511 22.5 13.8603 22.421 13.7197 22.2803C13.579 22.1397 13.5 21.9489 13.5 21.75V14.25Z" fill="#4B5563"/>
<rect x="0.5" y="0.5" width="39" height="39" rx="7.5" stroke="#E5E7EB"/>
</svg>
