<svg width="40" height="40" viewBox="0 0 40 40" fill="none" xmlns="http://www.w3.org/2000/svg">
<rect x="0.5" y="0.5" width="39" height="39" rx="7.5" fill="white"/>
<rect x="4" y="4" width="32" height="32" rx="4" fill="#F1F3F5"/>
<path d="M20.75 20.8175V23.4315C21.1539 23.3634 21.5406 23.2166 21.888 22.9995C22.37 22.6845 22.5 22.3515 22.5 22.1245C22.5 21.8975 22.37 21.5645 21.888 21.2495C21.5406 21.0325 21.1539 20.8857 20.75 20.8175ZM18.33 18.6195C18.383 18.6745 18.445 18.7295 18.514 18.7835C18.722 18.9435 18.974 19.0675 19.25 19.1465V16.6025C19.1302 16.6369 19.0132 16.6804 18.9 16.7325C18.76 16.7975 18.63 16.8755 18.514 16.9655C18.137 17.2575 18 17.5925 18 17.8745C18 18.0585 18.058 18.2645 18.202 18.4665C18.239 18.5175 18.282 18.5695 18.33 18.6195Z" fill="#4B5563"/>
<path fill-rule="evenodd" clip-rule="evenodd" d="M28 20C28 22.1217 27.1571 24.1566 25.6569 25.6569C24.1566 27.1571 22.1217 28 20 28C17.8783 28 15.8434 27.1571 14.3431 25.6569C12.8429 24.1566 12 22.1217 12 20C12 17.8783 12.8429 15.8434 14.3431 14.3431C15.8434 12.8429 17.8783 12 20 12C22.1217 12 24.1566 12.8429 25.6569 14.3431C27.1571 15.8434 28 17.8783 28 20ZM20 14C20.1989 14 20.3897 14.079 20.5303 14.2197C20.671 14.3603 20.75 14.5511 20.75 14.75V15.066C21.3504 15.1671 21.9175 15.4117 22.403 15.779C22.829 16.109 23.147 16.519 23.328 16.979C23.3951 17.1627 23.3877 17.3654 23.3075 17.5438C23.2272 17.7221 23.0805 17.8621 22.8985 17.9339C22.7166 18.0056 22.5138 18.0034 22.3334 17.9278C22.1531 17.8522 22.0094 17.7091 21.933 17.529C21.8376 17.3044 21.6831 17.1098 21.486 16.966C21.2658 16.7996 21.016 16.6765 20.75 16.603V19.3C21.448 19.393 22.133 19.62 22.709 19.996C23.496 20.51 23.999 21.266 23.999 22.126C23.999 22.986 23.495 23.742 22.709 24.256C22.133 24.633 21.448 24.859 20.749 24.952V25.251C20.749 25.4499 20.67 25.6407 20.5293 25.7813C20.3887 25.922 20.1979 26.001 19.999 26.001C19.8001 26.001 19.6093 25.922 19.4687 25.7813C19.328 25.6407 19.249 25.4499 19.249 25.251V24.951C18.552 24.859 17.867 24.633 17.291 24.256C16.809 23.941 16.434 23.539 16.213 23.068C16.1287 22.8878 16.1194 22.6814 16.1872 22.4944C16.255 22.3073 16.3943 22.1548 16.5745 22.0705C16.7547 21.9862 16.9611 21.9769 17.1481 22.0447C17.3352 22.1125 17.4877 22.2518 17.572 22.432C17.652 22.605 17.817 22.808 18.112 23.001C18.425 23.206 18.818 23.354 19.25 23.433V20.685C18.6496 20.5838 18.0826 20.3393 17.597 19.972C16.9 19.433 16.5 18.681 16.5 17.875C16.5 17.07 16.9 16.317 17.597 15.779C18.0825 15.4117 18.6496 15.1671 19.25 15.066V14.75C19.25 14.5511 19.329 14.3603 19.4697 14.2197C19.6103 14.079 19.8011 14 20 14Z" fill="#4B5563"/>
<rect x="0.5" y="0.5" width="39" height="39" rx="7.5" stroke="#E5E7EB"/>
</svg>
