<svg width="40" height="40" viewBox="0 0 40 40" fill="none" xmlns="http://www.w3.org/2000/svg">
<rect x="0.5" y="0.5" width="39" height="39" rx="7.5" fill="white"/>
<rect x="4" y="4" width="32" height="32" rx="4" fill="#F1F3F5"/>
<path d="M12 14.25C12 13.6533 12.2371 13.081 12.659 12.659C13.081 12.2371 13.6533 12 14.25 12H16.75C17.3467 12 17.919 12.2371 18.341 12.659C18.7629 13.081 19 13.6533 19 14.25V16.75C19 17.3467 18.7629 17.919 18.341 18.341C17.919 18.7629 17.3467 19 16.75 19H14.25C13.6533 19 13.081 18.7629 12.659 18.341C12.2371 17.919 12 17.3467 12 16.75V14.25ZM12 23.25C12 22.6533 12.2371 22.081 12.659 21.659C13.081 21.2371 13.6533 21 14.25 21H16.75C17.3467 21 17.919 21.2371 18.341 21.659C18.7629 22.081 19 22.6533 19 23.25V25.75C19 26.3467 18.7629 26.919 18.341 27.341C17.919 27.7629 17.3467 28 16.75 28H14.25C13.6533 28 13.081 27.7629 12.659 27.341C12.2371 26.919 12 26.3467 12 25.75V23.25ZM21 14.25C21 13.6533 21.2371 13.081 21.659 12.659C22.081 12.2371 22.6533 12 23.25 12H25.75C26.3467 12 26.919 12.2371 27.341 12.659C27.7629 13.081 28 13.6533 28 14.25V16.75C28 17.3467 27.7629 17.919 27.341 18.341C26.919 18.7629 26.3467 19 25.75 19H23.25C22.6533 19 22.081 18.7629 21.659 18.341C21.2371 17.919 21 17.3467 21 16.75V14.25ZM25.25 21.75C25.25 21.5511 25.171 21.3603 25.0303 21.2197C24.8897 21.079 24.6989 21 24.5 21C24.3011 21 24.1103 21.079 23.9697 21.2197C23.829 21.3603 23.75 21.5511 23.75 21.75V23.75H21.75C21.5511 23.75 21.3603 23.829 21.2197 23.9697C21.079 24.1103 21 24.3011 21 24.5C21 24.6989 21.079 24.8897 21.2197 25.0303C21.3603 25.171 21.5511 25.25 21.75 25.25H23.75V27.25C23.75 27.4489 23.829 27.6397 23.9697 27.7803C24.1103 27.921 24.3011 28 24.5 28C24.6989 28 24.8897 27.921 25.0303 27.7803C25.171 27.6397 25.25 27.4489 25.25 27.25V25.25H27.25C27.4489 25.25 27.6397 25.171 27.7803 25.0303C27.921 24.8897 28 24.6989 28 24.5C28 24.3011 27.921 24.1103 27.7803 23.9697C27.6397 23.829 27.4489 23.75 27.25 23.75H25.25V21.75Z" fill="#687076"/>
<rect x="0.5" y="0.5" width="39" height="39" rx="7.5" stroke="#D1D5DB"/>
</svg>
