<svg width="169" height="24" viewBox="0 0 169 24" fill="none" xmlns="http://www.w3.org/2000/svg">
<path d="M19.9938 4.70542L15.1027 1.89145C13.5024 0.968474 11.5414 0.968474 9.94114 1.89145L5.02752 4.70542C3.44975 5.6284 2.45801 7.33929 2.45801 9.16274V14.8132C2.45801 16.6591 3.44975 18.3475 5.02752 19.2705L9.9186 22.107C11.5189 23.03 13.4798 23.03 15.0802 22.107L19.9712 19.2705C21.5715 18.3475 22.5407 16.6591 22.5407 14.8132V9.16274C22.5858 7.33929 21.5941 5.6284 19.9938 4.70542ZM12.5106 17.0193C9.73828 17.0193 7.48433 14.7682 7.48433 11.9992C7.48433 9.23028 9.73828 6.9791 12.5106 6.9791C15.283 6.9791 17.5595 9.23028 17.5595 11.9992C17.5595 14.7682 15.3055 17.0193 12.5106 17.0193Z" fill="#9CA3AF"/>
<path d="M59.7935 1.21674C59.7471 1.22096 59.5995 1.23573 59.4666 1.24627C56.402 1.52257 53.5314 3.17616 51.7133 5.71771C50.7009 7.13086 50.0534 8.73382 49.8087 10.4317C49.7222 11.0244 49.7117 11.1994 49.7117 12.003C49.7117 12.8066 49.7222 12.9817 49.8087 13.5744C50.395 17.6261 53.2783 21.0303 57.1887 22.2916C57.8889 22.5172 58.6271 22.6712 59.4666 22.764C59.7935 22.7999 61.2066 22.7999 61.5336 22.764C62.9826 22.6037 64.2101 22.2452 65.4208 21.6272C65.6064 21.5323 65.6422 21.507 65.6169 21.4859C65.6 21.4732 64.8091 20.4123 63.86 19.1299L62.1347 16.7993L59.9728 13.5997C58.7832 11.8406 57.8046 10.4022 57.7961 10.4022C57.7877 10.4001 57.7792 11.8216 57.775 13.5575C57.7687 16.5968 57.7666 16.7191 57.7286 16.7909C57.6738 16.8942 57.6316 16.9364 57.543 16.9828C57.4755 17.0165 57.4165 17.0229 57.098 17.0229H56.7331L56.6361 16.9617C56.5728 16.9216 56.5264 16.8689 56.4948 16.8077L56.4505 16.7128L56.4547 12.4839L56.461 8.25293L56.5264 8.17068C56.5601 8.12638 56.6319 8.06944 56.6825 8.04202C56.7689 7.99983 56.8027 7.99561 57.1676 7.99561C57.5979 7.99561 57.6696 8.01249 57.7814 8.13482C57.813 8.16857 58.9836 9.93183 60.3841 12.0558C61.7846 14.1797 63.6997 17.0798 64.6404 18.5035L66.3488 21.0914L66.4353 21.0345C67.2009 20.5367 68.0108 19.8281 68.652 19.0898C70.0166 17.5227 70.8962 15.6118 71.1914 13.5744C71.2779 12.9817 71.2885 12.8066 71.2885 12.003C71.2885 11.1994 71.2779 11.0244 71.1914 10.4317C70.6051 6.37999 67.7219 2.97579 63.8115 1.71451C63.1218 1.49094 62.3878 1.33697 61.5652 1.24416C61.3627 1.22307 59.9686 1.19987 59.7935 1.21674ZM64.2101 7.74251C64.3113 7.79313 64.3936 7.89016 64.4231 7.9914C64.44 8.04623 64.4442 9.21893 64.44 11.8617L64.4337 15.654L63.7651 14.629L63.0943 13.6039V10.8472C63.0943 9.06496 63.1028 8.06311 63.1154 8.0146C63.1492 7.89648 63.223 7.80368 63.3242 7.74884C63.4107 7.70455 63.4424 7.70033 63.7735 7.70033C64.0857 7.70033 64.1405 7.70455 64.2101 7.74251Z" fill="#9CA3AF"/>
<path d="M66.2432 21.1361C66.1694 21.1825 66.1462 21.2141 66.2116 21.1783C66.258 21.1509 66.3339 21.0939 66.3213 21.0918C66.315 21.0918 66.2791 21.1129 66.2432 21.1361ZM66.0977 21.231C66.0598 21.2605 66.0597 21.2626 66.1062 21.2394C66.1315 21.2268 66.1526 21.212 66.1526 21.2078C66.1526 21.1909 66.142 21.1951 66.0977 21.231ZM65.9923 21.2943C65.9543 21.3238 65.9543 21.3259 66.0007 21.3027C66.026 21.2901 66.0471 21.2753 66.0471 21.2711C66.0471 21.2542 66.0365 21.2584 65.9923 21.2943ZM65.8868 21.3576C65.8488 21.3871 65.8488 21.3892 65.8952 21.366C65.9205 21.3533 65.9416 21.3386 65.9416 21.3344C65.9416 21.3175 65.9311 21.3217 65.8868 21.3576ZM65.7265 21.4419C65.6464 21.4841 65.6506 21.501 65.7307 21.4609C65.7666 21.4419 65.794 21.4229 65.794 21.4187C65.794 21.404 65.7919 21.4061 65.7265 21.4419Z" fill="#9CA3AF"/>
<mask id="mask0_10067_2268" style="mask-type:luminance" maskUnits="userSpaceOnUse" x="97" y="5" width="23" height="14">
<path d="M97.7 5.51953H119.3V18.4795H97.7V5.51953Z" fill="white"/>
</mask>
<g mask="url(#mask0_10067_2268)">
<path fill-rule="evenodd" clip-rule="evenodd" d="M108.5 5.51953C105.62 5.51953 103.82 6.95953 103.1 9.83953C104.18 8.39953 105.44 7.85953 106.88 8.21953C107.702 8.42473 108.289 9.02113 108.939 9.68073C109.998 10.7555 111.223 11.9995 113.9 11.9995C116.78 11.9995 118.58 10.5595 119.3 7.67953C118.22 9.11953 116.96 9.65953 115.52 9.29953C114.698 9.09433 114.111 8.49793 113.461 7.83833C112.402 6.76353 111.177 5.51953 108.5 5.51953ZM103.1 11.9995C100.22 11.9995 98.42 13.4395 97.7 16.3195C98.78 14.8795 100.04 14.3395 101.48 14.6995C102.302 14.9051 102.889 15.5011 103.539 16.1607C104.598 17.2355 105.823 18.4795 108.5 18.4795C111.38 18.4795 113.18 17.0395 113.9 14.1595C112.82 15.5995 111.56 16.1395 110.12 15.7795C109.298 15.5743 108.711 14.9779 108.061 14.3183C107.002 13.2435 105.777 11.9995 103.1 11.9995Z" fill="#9CA3AF"/>
</g>
<path fill-rule="evenodd" clip-rule="evenodd" d="M149.7 1.19922H163.3C165.509 1.19922 167.3 2.99008 167.3 5.19922V18.7992C167.3 21.0084 165.509 22.7992 163.3 22.7992H149.7C147.491 22.7992 145.7 21.0084 145.7 18.7992V5.19922C145.7 2.99008 147.491 1.19922 149.7 1.19922ZM158.038 19.249V17.048C158.41 17.3828 158.813 17.6338 159.248 17.8012C159.684 17.9685 160.123 18.0522 160.567 18.0522C160.828 18.0522 161.055 18.027 161.249 17.9765C161.443 17.9261 161.606 17.8562 161.736 17.7668C161.866 17.6774 161.963 17.5719 162.027 17.4504C162.091 17.3289 162.123 17.1971 162.123 17.0549C162.123 16.8623 162.072 16.6904 161.969 16.5391C161.867 16.3878 161.727 16.2479 161.55 16.1195C161.373 15.9911 161.163 15.8673 160.919 15.7481C160.676 15.6289 160.414 15.5074 160.132 15.3836C159.415 15.0626 158.88 14.6706 158.528 14.2075C158.176 13.7443 158 13.1849 158 12.5292C158 12.0157 158.096 11.5743 158.288 11.2052C158.48 10.8361 158.742 10.5323 159.072 10.2939C159.403 10.0554 159.786 9.88007 160.222 9.76774C160.657 9.65541 161.118 9.59922 161.605 9.59922C162.083 9.59922 162.506 9.63017 162.875 9.69207C163.245 9.75398 163.585 9.84912 163.897 9.9775V12.034C163.743 11.9194 163.575 11.8185 163.394 11.7314C163.213 11.6443 163.026 11.572 162.834 11.5147C162.642 11.4574 162.451 11.415 162.261 11.3875C162.071 11.36 161.89 11.3462 161.72 11.3462C161.485 11.3462 161.272 11.3703 161.08 11.4184C160.887 11.4666 160.725 11.5342 160.593 11.6213C160.461 11.7085 160.358 11.8128 160.286 11.9343C160.213 12.0558 160.177 12.1922 160.177 12.3435C160.177 12.5086 160.217 12.6564 160.298 12.7872C160.38 12.9178 160.495 13.0416 160.644 13.1586C160.794 13.2755 160.975 13.3901 161.188 13.5025C161.402 13.6148 161.643 13.7306 161.912 13.8498C162.279 14.0149 162.609 14.1902 162.901 14.3759C163.193 14.5617 163.444 14.7715 163.653 15.0053C163.862 15.2392 164.023 15.5063 164.133 15.8066C164.244 16.1069 164.3 16.4565 164.3 16.8555C164.3 17.4057 164.203 17.8676 164.009 18.2413C163.814 18.615 163.551 18.9177 163.218 19.1492C162.885 19.3808 162.498 19.547 162.056 19.6479C161.614 19.7488 161.148 19.7992 160.657 19.7992C160.153 19.7992 159.674 19.7534 159.22 19.6616C158.765 19.5699 158.371 19.4324 158.038 19.249ZM157.223 11.6252H154.595V19.6673H152.514V11.6252H149.9V9.81905H157.223V11.6252Z" fill="#9CA3AF"/>
</svg>
