<svg width="25" height="24" viewBox="0 0 25 24" fill="none" xmlns="http://www.w3.org/2000/svg">
<path d="M19.9938 4.70542L15.1027 1.89145C13.5024 0.968474 11.5414 0.968474 9.94114 1.89145L5.02752 4.70542C3.44975 5.6284 2.45801 7.33929 2.45801 9.16274V14.8132C2.45801 16.6591 3.44975 18.3475 5.02752 19.2705L9.9186 22.107C11.5189 23.03 13.4798 23.03 15.0802 22.107L19.9712 19.2705C21.5715 18.3475 22.5407 16.6591 22.5407 14.8132V9.16274C22.5858 7.33929 21.5941 5.6284 19.9938 4.70542ZM12.5106 17.0193C9.73828 17.0193 7.48433 14.7682 7.48433 11.9992C7.48433 9.23028 9.73828 6.9791 12.5106 6.9791C15.283 6.9791 17.5595 9.23028 17.5595 11.9992C17.5595 14.7682 15.3055 17.0193 12.5106 17.0193Z" fill="#9CA3AF"/>
</svg>
