<svg width="25" height="24" viewBox="0 0 25 24" fill="none" xmlns="http://www.w3.org/2000/svg">
<path d="M11.7935 1.21674C11.7471 1.22096 11.5995 1.23573 11.4666 1.24627C8.40195 1.52257 5.53137 3.17616 3.71327 5.71771C2.70087 7.13086 2.05336 8.73382 1.80869 10.4317C1.72222 11.0244 1.71167 11.1994 1.71167 12.003C1.71167 12.8066 1.72222 12.9817 1.80869 13.5744C2.39504 17.6261 5.27827 21.0303 9.18867 22.2916C9.88892 22.5172 10.6271 22.6712 11.4666 22.764C11.7935 22.7999 13.2066 22.7999 13.5336 22.764C14.9826 22.6037 16.2101 22.2452 17.4208 21.6272C17.6064 21.5323 17.6422 21.507 17.6169 21.4859C17.6 21.4732 16.8091 20.4123 15.86 19.1299L14.1347 16.7993L11.9728 13.5997C10.7832 11.8406 9.80455 10.4022 9.79611 10.4022C9.78768 10.4001 9.77924 11.8216 9.77502 13.5575C9.76869 16.5968 9.76659 16.7191 9.72862 16.7909C9.67378 16.8942 9.6316 16.9364 9.54301 16.9828C9.47552 17.0165 9.41646 17.0229 9.09798 17.0229H8.73309L8.63607 16.9617C8.5728 16.9216 8.52639 16.8689 8.49476 16.8077L8.45046 16.7128L8.45468 12.4839L8.46101 8.25293L8.52639 8.17068C8.56014 8.12638 8.63185 8.06944 8.68247 8.04202C8.76895 7.99983 8.8027 7.99561 9.16758 7.99561C9.59785 7.99561 9.66956 8.01249 9.78135 8.13482C9.81299 8.16857 10.9836 9.93183 12.3841 12.0558C13.7846 14.1797 15.6997 17.0798 16.6404 18.5035L18.3488 21.0914L18.4353 21.0345C19.2009 20.5367 20.0108 19.8281 20.652 19.0898C22.0166 17.5227 22.8962 15.6118 23.1914 13.5744C23.2779 12.9817 23.2885 12.8066 23.2885 12.003C23.2885 11.1994 23.2779 11.0244 23.1914 10.4317C22.6051 6.37999 19.7219 2.97579 15.8115 1.71451C15.1218 1.49094 14.3878 1.33697 13.5652 1.24416C13.3627 1.22307 11.9686 1.19987 11.7935 1.21674ZM16.2101 7.74251C16.3113 7.79313 16.3936 7.89016 16.4231 7.9914C16.44 8.04623 16.4442 9.21893 16.44 11.8617L16.4337 15.654L15.7651 14.629L15.0943 13.6039V10.8472C15.0943 9.06496 15.1028 8.06311 15.1154 8.0146C15.1492 7.89648 15.223 7.80368 15.3242 7.74884C15.4107 7.70455 15.4424 7.70033 15.7735 7.70033C16.0857 7.70033 16.1405 7.70455 16.2101 7.74251Z" fill="#9CA3AF"/>
<path d="M18.2432 21.1361C18.1694 21.1825 18.1462 21.2141 18.2116 21.1783C18.258 21.1509 18.3339 21.0939 18.3213 21.0918C18.315 21.0918 18.2791 21.1129 18.2432 21.1361ZM18.0977 21.231C18.0598 21.2605 18.0597 21.2626 18.1062 21.2394C18.1315 21.2268 18.1526 21.212 18.1526 21.2078C18.1526 21.1909 18.142 21.1951 18.0977 21.231ZM17.9923 21.2943C17.9543 21.3238 17.9543 21.3259 18.0007 21.3027C18.026 21.2901 18.0471 21.2753 18.0471 21.2711C18.0471 21.2542 18.0365 21.2584 17.9923 21.2943ZM17.8868 21.3576C17.8488 21.3871 17.8488 21.3892 17.8952 21.366C17.9205 21.3533 17.9416 21.3386 17.9416 21.3344C17.9416 21.3175 17.9311 21.3217 17.8868 21.3576ZM17.7265 21.4419C17.6464 21.4841 17.6506 21.501 17.7307 21.4609C17.7666 21.4419 17.794 21.4229 17.794 21.4187C17.794 21.404 17.7919 21.4061 17.7265 21.4419Z" fill="#9CA3AF"/>
</svg>
