<svg width="40" height="40" viewBox="0 0 40 40" fill="none" xmlns="http://www.w3.org/2000/svg">
<rect x="0.5" y="0.5" width="39" height="39" rx="7.5" fill="white"/>
<rect x="4" y="4" width="32" height="32" rx="4" fill="#F1F3F5"/>
<path d="M19.4113 11.0136C19.3726 11.0171 19.2496 11.0294 19.1389 11.0382C16.585 11.2685 14.1929 12.6465 12.6778 14.7644C11.8341 15.9421 11.2945 17.2779 11.0906 18.6928C11.0186 19.1867 11.0098 19.3325 11.0098 20.0022C11.0098 20.6719 11.0186 20.8177 11.0906 21.3116C11.5792 24.6881 13.9819 27.5249 17.2406 28.576C17.8241 28.764 18.4393 28.8924 19.1389 28.9697C19.4113 28.9996 20.5889 28.9996 20.8613 28.9697C22.0688 28.8361 23.0918 28.5373 24.1007 28.0223C24.2553 27.9432 24.2852 27.9221 24.2641 27.9046C24.2501 27.894 23.591 27.0099 22.8 25.9413L21.3623 23.9991L19.5607 21.3327C18.5694 19.8669 17.7538 18.6682 17.7468 18.6682C17.7398 18.6664 17.7327 19.851 17.7292 21.2976C17.724 23.8303 17.7222 23.9323 17.6906 23.992C17.6449 24.0782 17.6097 24.1133 17.5359 24.152C17.4796 24.1801 17.4304 24.1854 17.165 24.1854H16.861L16.7801 24.1344C16.7274 24.101 16.6887 24.0571 16.6623 24.0061L16.6254 23.927L16.6289 20.4029L16.6342 16.8771L16.6887 16.8086C16.7168 16.7717 16.7766 16.7242 16.8188 16.7014C16.8908 16.6662 16.919 16.6627 17.223 16.6627C17.5816 16.6627 17.6413 16.6767 17.7345 16.7787C17.7609 16.8068 18.7364 18.2762 19.9034 20.0461C21.0705 21.8161 22.6664 24.2328 23.4503 25.4193L24.874 27.5759L24.9461 27.5284C25.5841 27.1136 26.2591 26.5231 26.7934 25.9079C27.9306 24.602 28.6635 23.0095 28.9096 21.3116C28.9816 20.8177 28.9904 20.6719 28.9904 20.0022C28.9904 19.3325 28.9816 19.1867 28.9096 18.6928C28.421 15.3163 26.0183 12.4795 22.7596 11.4284C22.1848 11.2421 21.5732 11.1138 20.8877 11.0365C20.719 11.0189 19.5572 10.9996 19.4113 11.0136ZM23.0918 16.4518C23.1762 16.494 23.2447 16.5748 23.2693 16.6592C23.2834 16.7049 23.2869 17.6821 23.2834 19.8844L23.2781 23.0447L22.7209 22.1905L22.162 21.3363V19.039C22.162 17.5538 22.169 16.7189 22.1796 16.6785C22.2077 16.5801 22.2692 16.5027 22.3536 16.457C22.4256 16.4201 22.452 16.4166 22.728 16.4166C22.9881 16.4166 23.0338 16.4201 23.0918 16.4518Z" fill="#4B5563"/>
<path d="M24.7861 27.6141C24.7246 27.6527 24.7053 27.6791 24.7598 27.6492C24.7984 27.6264 24.8617 27.5789 24.8512 27.5771C24.8459 27.5771 24.816 27.5947 24.7861 27.6141ZM24.6648 27.6932C24.6332 27.7178 24.6332 27.7195 24.6719 27.7002C24.693 27.6896 24.7105 27.6773 24.7105 27.6738C24.7105 27.6598 24.7018 27.6633 24.6648 27.6932ZM24.577 27.7459C24.5453 27.7705 24.5453 27.7722 24.584 27.7529C24.6051 27.7424 24.6227 27.7301 24.6227 27.7265C24.6227 27.7125 24.6139 27.716 24.577 27.7459ZM24.4891 27.7986C24.4574 27.8232 24.4574 27.825 24.4961 27.8056C24.5172 27.7951 24.5348 27.7828 24.5348 27.7793C24.5348 27.7652 24.526 27.7687 24.4891 27.7986ZM24.3555 27.8689C24.2887 27.9041 24.2922 27.9181 24.359 27.8847C24.3889 27.8689 24.4117 27.8531 24.4117 27.8496C24.4117 27.8373 24.41 27.839 24.3555 27.8689Z" fill="#4B5563"/>
<rect x="0.5" y="0.5" width="39" height="39" rx="7.5" stroke="#E5E7EB"/>
</svg>
