<svg width="32" height="32" viewBox="0 0 32 32" fill="none" xmlns="http://www.w3.org/2000/svg">
<rect width="32" height="32" rx="4" fill="#00DC82"/>
<path d="M17.0982 22H23.7895C24.0021 22 24.2108 21.9446 24.3949 21.8393C24.579 21.7339 24.7318 21.5824 24.838 21.4C24.9442 21.2175 25.0001 21.0106 25 20.7999C24.9999 20.5893 24.9439 20.3824 24.8375 20.2L20.3437 12.4858C20.2375 12.3034 20.0847 12.1519 19.9007 12.0466C19.7167 11.9413 19.508 11.8858 19.2955 11.8858C19.083 11.8858 18.8742 11.9413 18.6902 12.0466C18.5062 12.1519 18.3534 12.3034 18.2472 12.4858L17.0982 14.4596L14.8516 10.5999C14.7453 10.4175 14.5925 10.266 14.4084 10.1607C14.2243 10.0554 14.0155 10 13.803 10C13.5905 10 13.3817 10.0554 13.1977 10.1607C13.0136 10.266 12.8607 10.4175 12.7544 10.5999L7.16253 20.2C7.05615 20.3824 7.00009 20.5893 7 20.7999C6.99991 21.0106 7.05578 21.2175 7.162 21.4C7.26822 21.5824 7.42105 21.7339 7.6051 21.8393C7.78915 21.9446 7.99795 22 8.21048 22H12.4108C14.075 22 15.3022 21.2755 16.1467 19.862L18.197 16.3429L19.2951 14.4596L22.5909 20.1167H18.197L17.0982 22ZM12.3423 20.1147L9.41102 20.1141L13.805 12.5717L15.9974 16.3429L14.5295 18.8635C13.9687 19.7806 13.3315 20.1147 12.3423 20.1147Z" fill="white"/>
</svg>
