<svg width="32" height="32" viewBox="0 0 32 32" fill="none" xmlns="http://www.w3.org/2000/svg">
<rect width="32" height="32" rx="4" fill="#4945FF"/>
<path fill-rule="evenodd" clip-rule="evenodd" d="M24.7702 6.99414H12.8876V13.053H18.9464V19.1118H25.0053V7.22921C25.0053 7.09892 24.8998 6.99414 24.7702 6.99414Z" fill="white"/>
<path d="M12.8876 13.0547H18.7113C18.8416 13.0547 18.9464 13.1602 18.9464 13.2898V19.1135H13.1226C12.9924 19.1135 12.8876 19.0081 12.8876 18.8785V13.0547Z" fill="#9593FF"/>
<path d="M18.9463 19.1133H25.0051L19.1469 24.9715C19.0724 25.046 18.9463 24.9929 18.9463 24.8881V19.1133Z" fill="#9593FF"/>
<path d="M12.8875 13.053H7.11264C7.00786 13.053 6.95547 12.9261 7.02923 12.8524L12.8875 6.99414V13.053Z" fill="#9593FF"/>
</svg>
