<svg width="32" height="32" viewBox="0 0 32 32" fill="none" xmlns="http://www.w3.org/2000/svg">
<rect width="32" height="32" rx="4" fill="#FF3E00"/>
<path d="M22.5439 9.3715C20.87 6.97567 17.564 6.26554 15.1736 7.78854L10.9754 10.4642C9.82867 11.1856 9.03881 12.3567 8.79952 13.6902C8.59927 14.8011 8.77528 15.947 9.2997 16.9466C8.94036 17.4917 8.69527 18.104 8.57925 18.7465C8.33764 20.1057 8.65368 21.5048 9.45601 22.6281C11.1303 25.0241 14.4363 25.734 16.8264 24.211L21.0245 21.5354C22.1713 20.814 22.9612 19.6429 23.2004 18.3094C23.4006 17.1985 23.2247 16.0526 22.7005 15.0529C23.0598 14.5078 23.3048 13.8955 23.4207 13.253C23.6624 11.8939 23.3464 10.4947 22.5439 9.3715Z" fill="white"/>
<path d="M14.7634 22.854C13.4102 23.2058 11.9812 22.6761 11.1843 21.5273C10.7017 20.8518 10.5116 20.0104 10.6569 19.193C10.6813 19.0602 10.7148 18.9292 10.7572 18.801L10.8363 18.5599L11.0514 18.7179C11.5481 19.0829 12.1035 19.3604 12.6936 19.5384L12.8496 19.5857L12.8353 19.7415C12.8162 19.963 12.8762 20.1841 13.0046 20.3657C13.2444 20.7117 13.6747 20.8714 14.0822 20.7656C14.1735 20.7413 14.2604 20.703 14.3401 20.6523L18.5382 17.977C18.7459 17.8462 18.8891 17.6341 18.9327 17.3925C18.9762 17.1462 18.9189 16.8927 18.7737 16.689C18.5337 16.3428 18.1034 16.1831 17.6957 16.2888C17.6046 16.3131 17.5177 16.3513 17.4382 16.402L15.8361 17.4232C15.5727 17.5907 15.2852 17.717 14.9837 17.7976C13.6304 18.1495 12.2014 17.6198 11.4045 16.4709C10.9219 15.7954 10.7318 14.954 10.8771 14.1367C11.021 13.3348 11.496 12.6307 12.1857 12.197L16.3836 9.52138C16.6471 9.3536 16.9348 9.2272 17.2366 9.14656C18.5898 8.79474 20.0188 9.32443 20.8157 10.4732C21.2983 11.1487 21.4884 11.9902 21.3431 12.8075C21.3186 12.9403 21.2851 13.0713 21.2428 13.1995L21.1637 13.4406L20.9487 13.2829C20.452 12.9177 19.8966 12.6401 19.3064 12.462L19.1504 12.4147L19.1647 12.2589C19.1836 12.0374 19.1237 11.8163 18.9954 11.6347C18.7556 11.2887 18.3253 11.129 17.9178 11.2348C17.8265 11.2592 17.7396 11.2974 17.6599 11.3481L13.4617 14.0236C13.254 14.1543 13.1109 14.3664 13.0675 14.608C13.0237 14.8543 13.0809 15.1079 13.2261 15.3116C13.4661 15.6578 13.8965 15.8175 14.3042 15.7118C14.3954 15.6874 14.4823 15.6492 14.562 15.5985L16.1638 14.5777C16.4271 14.4099 16.7146 14.2836 17.0162 14.203C18.3694 13.8512 19.7984 14.3809 20.5954 15.5297C21.078 16.2052 21.2681 17.0466 21.1227 17.8639C20.9788 18.6658 20.5038 19.3701 19.8142 19.804L15.6164 22.4792C15.3528 22.6469 15.0652 22.7733 14.7634 22.854Z" fill="#FF3E00"/>
</svg>
