<svg width="25" height="24" viewBox="0 0 25 24" fill="none" xmlns="http://www.w3.org/2000/svg">
<mask id="mask0_10067_2271" style="mask-type:luminance" maskUnits="userSpaceOnUse" x="1" y="5" width="23" height="14">
<path d="M1.69995 5.51953H23.2999V18.4795H1.69995V5.51953Z" fill="white"/>
</mask>
<g mask="url(#mask0_10067_2271)">
<path fill-rule="evenodd" clip-rule="evenodd" d="M12.5 5.51953C9.61995 5.51953 7.81995 6.95953 7.09995 9.83953C8.17995 8.39953 9.43995 7.85953 10.88 8.21953C11.7016 8.42473 12.2888 9.02113 12.9388 9.68073C13.9976 10.7555 15.2232 11.9995 17.9 11.9995C20.7799 11.9995 22.58 10.5595 23.2999 7.67953C22.2199 9.11953 20.9599 9.65953 19.5199 9.29953C18.6983 9.09433 18.1112 8.49793 17.4612 7.83833C16.4024 6.76353 15.1768 5.51953 12.5 5.51953ZM7.09995 11.9995C4.21995 11.9995 2.41995 13.4395 1.69995 16.3195C2.77995 14.8795 4.03995 14.3395 5.47995 14.6995C6.30155 14.9051 6.88875 15.5011 7.53875 16.1607C8.59755 17.2355 9.82315 18.4795 12.5 18.4795C15.38 18.4795 17.18 17.0395 17.9 14.1595C16.82 15.5995 15.5599 16.1395 14.12 15.7795C13.2984 15.5743 12.7112 14.9779 12.0612 14.3183C11.0024 13.2435 9.77675 11.9995 7.09995 11.9995Z" fill="#9CA3AF"/>
</g>
</svg>
