<svg width="25" height="24" viewBox="0 0 25 24" fill="none" xmlns="http://www.w3.org/2000/svg">
<path fill-rule="evenodd" clip-rule="evenodd" d="M5.69995 1.19922H19.2999C21.5091 1.19922 23.3 2.99008 23.3 5.19922V18.7992C23.3 21.0084 21.5091 22.7992 19.3 22.7992H5.69995C3.49082 22.7992 1.69995 21.0084 1.69995 18.7992V5.19922C1.69995 2.99008 3.49081 1.19922 5.69995 1.19922ZM14.0384 19.249V17.048C14.4097 17.3828 14.8131 17.6338 15.2484 17.8012C15.6838 17.9685 16.1234 18.0522 16.5673 18.0522C16.8277 18.0522 17.055 18.027 17.2492 17.9765C17.4434 17.9261 17.6056 17.8562 17.7358 17.7668C17.8659 17.6774 17.9631 17.5719 18.0271 17.4504C18.0911 17.3289 18.1231 17.1971 18.1231 17.0549C18.1231 16.8623 18.0719 16.6904 17.9695 16.5391C17.867 16.3878 17.7272 16.2479 17.5501 16.1195C17.373 15.9911 17.1628 15.8673 16.9195 15.7481C16.6762 15.6289 16.4137 15.5074 16.132 15.3836C15.4149 15.0626 14.8803 14.6706 14.5282 14.2075C14.176 13.7443 14 13.1849 14 12.5292C14 12.0157 14.096 11.5743 14.2881 11.2052C14.4801 10.8361 14.7416 10.5323 15.0723 10.2939C15.4032 10.0554 15.7862 9.88007 16.2216 9.76774C16.657 9.65541 17.1179 9.59922 17.6045 9.59922C18.0826 9.59922 18.5062 9.63017 18.8754 9.69207C19.2446 9.75398 19.585 9.84912 19.8966 9.9775V12.034C19.7429 11.9194 19.5754 11.8185 19.394 11.7314C19.2126 11.6443 19.0259 11.572 18.8338 11.5147C18.6417 11.4574 18.4507 11.415 18.2608 11.3875C18.0708 11.36 17.8905 11.3462 17.7198 11.3462C17.485 11.3462 17.2716 11.3703 17.0795 11.4184C16.8874 11.4666 16.7253 11.5342 16.5929 11.6213C16.4606 11.7085 16.3582 11.8128 16.2856 11.9343C16.2131 12.0558 16.1768 12.1922 16.1768 12.3435C16.1768 12.5086 16.2173 12.6564 16.2984 12.7872C16.3795 12.9178 16.4947 13.0416 16.6442 13.1586C16.7936 13.2755 16.9749 13.3901 17.1884 13.5025C17.4018 13.6148 17.6429 13.7306 17.9118 13.8498C18.2789 14.0149 18.6086 14.1902 18.901 14.3759C19.1934 14.5617 19.4442 14.7715 19.6533 15.0053C19.8625 15.2392 20.0225 15.5063 20.1335 15.8066C20.2445 16.1069 20.3 16.4565 20.3 16.8555C20.3 17.4057 20.2028 17.8676 20.0086 18.2413C19.8144 18.6151 19.5509 18.9177 19.2179 19.1492C18.885 19.3808 18.4977 19.547 18.0559 19.6479C17.6141 19.7488 17.1478 19.7992 16.657 19.7992C16.1533 19.7992 15.6742 19.7534 15.2196 19.6617C14.765 19.5699 14.3713 19.4324 14.0384 19.249ZM13.2227 11.6252H10.5955V19.6673H8.51429V11.6252H5.89995V9.81905H13.2227V11.6252Z" fill="#9CA3AF"/>
</svg>
