<svg width="32" height="32" viewBox="0 0 32 32" fill="none" xmlns="http://www.w3.org/2000/svg">
<rect width="32" height="32" rx="4" fill="#3D439B"/>
<path d="M16.7118 7.03482C21.5636 7.59474 24.4127 12.5757 22.5621 17.0694C21.8782 16.4493 20.5053 15.1115 20.5053 15.1222C21.0862 4.38556 1.78418 10.346 17.7768 23.4853C17.1713 23.9915 16.5744 24.4902 15.9645 25C12.7611 22.4109 9.4586 19.133 8.8026 14.911C8.37994 10.4058 12.1921 6.59375 16.7118 7.03482Z" fill="white"/>
<path d="M16.1475 21.4725C17.9044 19.7256 19.6767 17.8508 20.4313 15.46C20.4423 15.4518 22.4425 17.3816 22.4425 17.3816C21.4104 19.6299 19.7403 21.5329 17.9477 23.2305C17.9477 23.2305 16.7064 22.0211 16.1475 21.4725Z" fill="white"/>
<path d="M21.795 20.4765C19.9316 20.417 19.905 23.2856 21.7141 23.3255C23.6929 23.4278 23.7483 20.4341 21.795 20.4765ZM22.4998 21.9092C22.4926 22.8635 21.0758 22.7608 21.0945 21.8575C21.1316 20.9816 22.5613 20.9599 22.4998 21.9092Z" fill="white"/>
<path d="M17.7011 15.2633C15.8536 15.2511 15.9429 18.1197 17.6636 18.1129C19.5403 18.2089 19.5997 15.2158 17.7011 15.2633ZM17.0405 16.6113C17.1242 15.7694 18.3934 15.759 18.3973 16.6816C18.3889 17.6792 16.9883 17.5418 17.0405 16.6113Z" fill="white"/>
</svg>
