<svg width="129" height="31" viewBox="0 0 129 31" fill="none" xmlns="http://www.w3.org/2000/svg">
<g clip-path="url(#clip0_4_40)">
<path d="M50.2184 21.8611H47.3823V14.4978C47.3823 13.6768 47.1816 13.0318 46.7799 12.5627C46.3784 12.0768 45.8263 11.8339 45.1235 11.8339C44.3204 11.8339 43.6929 12.1019 43.2411 12.638C42.8061 13.1742 42.5886 13.9114 42.5886 14.8496V21.8611H39.7274V9.54695H42.5384V10.6276C43.308 9.7061 44.3705 9.24538 45.7258 9.24538C47.2484 9.24538 48.3946 9.7815 49.1643 10.8538C50.118 9.7815 51.398 9.24538 53.0043 9.24538C54.6105 9.24538 55.8236 9.71455 56.6435 10.6527C57.4801 11.5742 57.8984 12.9229 57.8984 14.6988V21.8611H55.0372V14.4978C55.0372 13.6768 54.8364 13.0318 54.4349 12.5627C54.0333 12.0768 53.4811 11.8339 52.7784 11.8339C51.9752 11.8339 51.3478 12.1103 50.896 12.6632C50.4443 13.1993 50.2184 13.9281 50.2184 14.8496V21.8611Z" fill="white"/>
<path d="M71.8174 15.5533L71.7923 16.5585H63.3845C63.4514 17.48 63.7777 18.2087 64.3633 18.7449C64.9489 19.281 65.7019 19.5491 66.6221 19.5491C67.9439 19.5491 68.998 18.971 69.7845 17.815L71.7171 19.6245C70.4119 21.2998 68.7136 22.1375 66.6221 22.1375C64.7648 22.1375 63.2757 21.5512 62.1547 20.3784C61.0169 19.1888 60.448 17.6559 60.448 15.7794C60.448 13.9533 60.9667 12.4035 62.0041 11.1302C63.0582 9.8737 64.4553 9.24538 66.1954 9.24538C68.0527 9.24538 69.4498 9.86533 70.3868 11.1051C71.3406 12.3448 71.8174 13.8276 71.8174 15.5533ZM66.2206 11.859C65.5011 11.859 64.9071 12.0852 64.4386 12.5376C63.9868 12.9899 63.6857 13.5679 63.5351 14.2716H68.7806C68.7638 13.5847 68.5379 13.015 68.1029 12.5627C67.6679 12.0936 67.0404 11.859 66.2206 11.859Z" fill="white"/>
<path d="M80.2454 9.24533C81.6172 9.24533 82.7632 9.64748 83.6833 10.4516V4.24431H86.5445V21.8611H83.7337V20.7553C82.8641 21.6768 81.7008 22.1375 80.2454 22.1375C78.5053 22.1375 77.0664 21.5343 75.928 20.3281C74.8073 19.105 74.2467 17.5637 74.2467 15.704C74.2467 13.8443 74.8073 12.303 75.928 11.0799C77.0491 9.85684 78.488 9.24533 80.2454 9.24533ZM82.8551 12.8894C82.27 12.1522 81.4666 11.7836 80.4456 11.7836C79.4254 11.7836 78.622 12.1522 78.0362 12.8894C77.4512 13.6265 77.1583 14.5647 77.1583 15.704C77.1583 16.8433 77.4512 17.7815 78.0362 18.5186C78.622 19.2558 79.4254 19.6244 80.4456 19.6244C81.4666 19.6244 82.27 19.2558 82.8551 18.5186C83.4408 17.7815 83.7337 16.8433 83.7337 15.704C83.7337 14.5647 83.4408 13.6265 82.8551 12.8894Z" fill="white"/>
<path d="M89.6947 9.54711H92.5559V16.9105C92.5559 17.7314 92.7569 18.3849 93.1582 18.8707C93.5603 19.3398 94.1287 19.5743 94.8651 19.5743C95.6512 19.5743 96.2709 19.2979 96.7226 18.745C97.191 18.1754 97.4251 17.4215 97.4251 16.4832V9.54711H100.286V21.8613H97.4756V20.856C96.6888 21.7105 95.6263 22.1377 94.2876 22.1377C92.8826 22.1377 91.7615 21.6602 90.925 20.7052C90.105 19.7335 89.6947 18.4016 89.6947 16.7094V9.54711Z" fill="white"/>
<path d="M108.765 17.2119L107.134 16.8098C104.641 16.2234 103.395 14.925 103.395 12.9145C103.395 11.8087 103.813 10.9208 104.649 10.2507C105.486 9.5805 106.565 9.24538 107.887 9.24538C109.661 9.24538 111.208 9.93228 112.53 11.3062L110.698 13.2664C109.945 12.2276 108.983 11.7082 107.811 11.7082C107.31 11.7082 106.9 11.8255 106.582 12.0601C106.281 12.2779 106.13 12.5459 106.13 12.8642C106.13 13.4339 106.531 13.8192 107.335 14.0203L109.268 14.4727C111.777 15.0422 113.032 16.3239 113.032 18.3177C113.032 19.4569 112.597 20.3784 111.727 21.082C110.874 21.7857 109.685 22.1375 108.163 22.1375C106.021 22.1375 104.323 21.3418 103.068 19.7501L104.875 17.8904C105.778 19.08 106.95 19.6747 108.389 19.6747C109.644 19.6747 110.271 19.2559 110.271 18.4182C110.271 17.8821 109.769 17.48 108.765 17.2119Z" fill="white"/>
<path d="M119.197 22.1375C118.009 22.1375 117.022 21.8025 116.236 21.1323C115.449 20.4454 115.056 19.5323 115.056 18.3931C115.056 17.0862 115.524 16.0726 116.462 15.3522C117.398 14.6318 118.637 14.2716 120.176 14.2716C120.946 14.2716 121.774 14.414 122.661 14.6988V13.8695C122.661 13.2664 122.435 12.7805 121.983 12.4119C121.531 12.0265 120.954 11.8339 120.251 11.8339C118.963 11.8339 117.992 12.4287 117.34 13.6182L115.408 11.8087C115.859 10.9878 116.52 10.3595 117.39 9.92391C118.277 9.47156 119.239 9.24538 120.276 9.24538C121.9 9.24538 123.18 9.64752 124.116 10.4517C125.054 11.2559 125.522 12.4035 125.522 13.8946V21.8611H122.711V20.9061C121.791 21.7271 120.62 22.1375 119.197 22.1375ZM117.917 18.192C117.917 18.6109 118.076 18.9543 118.394 19.2224C118.729 19.4904 119.189 19.6245 119.775 19.6245C120.979 19.6245 121.942 19.2726 122.661 18.569V17.1616C121.757 16.8266 120.904 16.659 120.101 16.659C119.431 16.659 118.896 16.793 118.495 17.0611C118.11 17.3292 117.917 17.7062 117.917 18.192Z" fill="white"/>
<path d="M24.3884 5.08102L17.5888 1.15228C15.364 -0.136352 12.6378 -0.136352 10.413 1.15228L3.58196 5.08102C1.38851 6.36965 0.00976562 8.75833 0.00976562 11.3042V19.1931C0.00976562 21.7703 1.38851 24.1276 3.58196 25.4162L10.3817 29.3764C12.6065 30.665 15.3326 30.665 17.5574 29.3764L24.3571 25.4162C26.5819 24.1276 27.9293 21.7703 27.9293 19.1931V11.3042C27.9919 8.75833 26.6132 6.36965 24.3884 5.08102ZM13.9852 22.2732C10.131 22.2732 6.99748 19.1302 6.99748 15.2643C6.99748 11.3984 10.131 8.25546 13.9852 8.25546C17.8394 8.25546 21.0043 11.3984 21.0043 15.2643C21.0043 19.1302 17.8707 22.2732 13.9852 22.2732Z" fill="url(#paint0_linear_4_40)"/>
</g>
<defs>
<linearGradient id="paint0_linear_4_40" x1="-23.9403" y1="24.8755" x2="33.026" y2="10.6006" gradientUnits="userSpaceOnUse">
<stop offset="0.265625" stop-color="#592EE1"/>
<stop offset="1" stop-color="#B836D9"/>
</linearGradient>
<clipPath id="clip0_4_40">
<rect width="128" height="30.1571" fill="white" transform="translate(0.00976562 0.186035)"/>
</clipPath>
</defs>
</svg>
